<svg width="518" height="318" xmlns="http://www.w3.org/2000/svg" version="1.1" enable-background="new 0 0 800 592" xml:space="preserve">
 <g>
  <title>Layer 1</title>
  <path fill="white" d="m485.0551,314.30759c-101.48071,-0.00251 -202.46139,-0.00858 -303.44208,-0.00211c-26.12924,1.32111 -27.91345,-0.11191 -32.70208,-0.095c-44.99084,0.15906 -89.98247,0.10348 -134.97387,0.09054c-6.26793,-0.0018 -9.27305,-1.94281 -10.81282,-6.8377c-1.24075,-3.94425 0.53148,-7.08557 2.62459,-10.22074c12.02597,-18.01315 23.95686,-36.08999 36.04224,-54.06303c2.04231,-3.03726 3.12779,-6.06341 2.99577,-9.75767c21.17725,-26.59479 23.43468,-30.00974 25.82254,-33.33089c5.94039,-8.26209 12.52216,-8.19181 18.18636,0.22845c6.78811,10.09099 13.48866,20.24085 20.23869,30.3575c1.18851,1.78125 2.43381,3.5246 3.56702,5.16147c2.02874,-0.09241 2.43548,-1.56419 3.07611,-2.62292c35.01056,-57.86294 69.98892,-115.74534 104.98019,-173.61996c9.22177,-15.2526 18.42407,-30.51737 27.73078,-45.71808c5.97305,-9.75584 12.65148,-9.89628 19.36453,-0.67009c15.09457,20.74542 30.24148,41.4528 45.37146,62.17245c0.55645,0.76204 1.15896,1.49045 2.5939,3.32811c17.43933,22.49722 18.64838,26.2083 21.48917,29.8031c4.83716,6.12094 9.32281,12.51963 13.88443,18.70438c2.67392,-0.35815 3.56585,-2.34329 4.78241,-3.79253c9.53259,-11.35604 18.99865,-22.7679 28.47699,-34.16946c7.58374,-9.12261 14.07458,-8.51655 19.45037,1.85973c35.63044,68.77372 71.25464,137.55068 106.87079,206.33181c0.76386,1.47515 1.55573,2.96286 2.0813,4.52969c2.1734,6.47867 -1.37585,11.94663 -8.20734,12.24204c-6.31994,0.27328 -12.66015,0.07907 -19.49145,0.09091m-125.95981,-165.65424c-6.25311,5.10574 -10.8483,4.76546 -15.79748,-1.39056c-3.15159,-3.92003 -6.07474,-8.02373 -9.32444,-12.34294c-18.04324,-23.95194 -19.25759,-26.91022 -21.42791,-29.85579c-14.13126,-19.17932 -28.14292,-38.44672 -42.22248,-57.6642c-3.76565,-5.13978 -7.63144,-10.20619 -11.65243,-15.57493c-0.89658,1.20835 -1.33179,1.70725 -1.67099,2.2646c-18.87662,31.01662 -37.70423,62.06326 -56.68408,93.01656c-1.72016,2.80533 -1.06562,4.359 0.98825,6.37253c7.61416,7.46476 15.08087,15.07968 22.65643,22.58425c2.43121,2.40849 4.56601,5.18824 7.84262,7.1085c1.65729,-1.97787 3.17697,-3.72221 4.62119,-5.52695c6.86923,-8.5841 13.69308,-17.20462 20.58114,-25.77354c6.54425,-8.14123 12.32102,-8.06306 18.9278,0.19249c1.14496,1.43072 2.25128,2.89236 3.37848,4.33734c14.75354,18.91313 29.60022,37.75498 44.18261,56.79915c2.87534,3.75513 4.66291,3.53148 7.67502,0.33842c6.74329,-7.14834 13.73456,-14.06662 20.72959,-20.97252c6.08642,-6.00889 11.61731,-5.65861 16.94085,0.83704c6.9693,8.50382 13.93683,17.00922 20.94806,25.47846c3.87659,4.68275 7.84076,9.29303 11.63776,13.78492c0.9732,-0.48108 1.38397,-0.54606 1.53808,-0.78009c7.50782,-11.40422 14.95923,-22.84579 22.513,-34.21942c1.37574,-2.07144 0.63178,-3.66195 -0.3247,-5.51578c-10.15796,-19.68682 -20.25965,-39.40268 -30.40863,-59.09416c-0.65644,-1.27375 -1.00074,-2.88566 -3.53534,-3.58685c-5.2096,6.34658 -10.4715,12.75691 -15.8141,19.27336c-5.3426,6.51645 -10.7659,13.13903 -16.2983,19.91011z" id="svg_1"/>
 </g>

</svg>