<svg width="800" height="465" xmlns="http://www.w3.org/2000/svg" version="1.1" enable-background="new 0 0 800 592" xml:space="preserve">
 <g>
  <title>Layer 1</title>
  <path fill="#937527" d="m636,314.30759c-101.48071,-0.00251 -202.46139,-0.00858 -303.44208,-0.00211c-26.12924,1.32111 -27.91345,-0.11191 -32.70208,-0.095c-44.99084,0.15906 -89.98247,0.10348 -134.97387,0.09054c-6.26793,-0.0018 -9.27305,-1.94281 -10.81282,-6.8377c-1.24075,-3.94425 0.53148,-7.08557 2.62459,-10.22074c12.02597,-18.01315 23.95686,-36.08999 36.04224,-54.06303c2.04231,-3.03726 3.12779,-6.06341 2.99577,-9.75767c21.17725,-26.59479 23.43468,-30.00974 25.82254,-33.33089c5.94039,-8.26209 12.52216,-8.19181 18.18636,0.22845c6.78811,10.09099 13.48866,20.24085 20.23869,30.3575c1.18851,1.78125 2.43381,3.5246 3.56702,5.16147c2.02874,-0.09241 2.43548,-1.56419 3.07611,-2.62292c35.01056,-57.86294 69.98892,-115.74534 104.98019,-173.61996c9.22177,-15.2526 18.42407,-30.51737 27.73078,-45.71808c5.97305,-9.75584 12.65148,-9.89628 19.36453,-0.67009c15.09457,20.74542 30.24148,41.4528 45.37146,62.17245c0.55645,0.76204 1.15896,1.49045 2.5939,3.32811c17.43933,22.49722 18.64838,26.2083 21.48917,29.8031c4.83716,6.12094 9.32281,12.51963 13.88443,18.70438c2.67392,-0.35815 3.56585,-2.34329 4.78241,-3.79253c9.53259,-11.35604 18.99865,-22.7679 28.47699,-34.16946c7.58374,-9.12261 14.07458,-8.51655 19.45037,1.85973c35.63044,68.77372 71.25464,137.55068 106.87079,206.33181c0.76386,1.47515 1.55573,2.96286 2.0813,4.52969c2.1734,6.47867 -1.37585,11.94663 -8.20734,12.24204c-6.31994,0.27328 -12.66015,0.07907 -19.49145,0.09091m-125.95981,-165.65424c-6.25311,5.10574 -10.8483,4.76546 -15.79748,-1.39056c-3.15159,-3.92003 -6.07474,-8.02373 -9.32444,-12.34294c-18.04324,-23.95194 -19.25759,-26.91022 -21.42791,-29.85579c-14.13126,-19.17932 -28.14292,-38.44672 -42.22248,-57.6642c-3.76565,-5.13978 -7.63144,-10.20619 -11.65243,-15.57493c-0.89658,1.20835 -1.33179,1.70725 -1.67099,2.2646c-18.87662,31.01662 -37.70423,62.06326 -56.68408,93.01656c-1.72016,2.80533 -1.06562,4.359 0.98825,6.37253c7.61416,7.46476 15.08087,15.07968 22.65643,22.58425c2.43121,2.40849 4.56601,5.18824 7.84262,7.1085c1.65729,-1.97787 3.17697,-3.72221 4.62119,-5.52695c6.86923,-8.5841 13.69308,-17.20462 20.58114,-25.77354c6.54425,-8.14123 12.32102,-8.06306 18.9278,0.19249c1.14496,1.43072 2.25128,2.89236 3.37848,4.33734c14.75354,18.91313 29.60022,37.75498 44.18261,56.79915c2.87534,3.75513 4.66291,3.53148 7.67502,0.33842c6.74329,-7.14834 13.73456,-14.06662 20.72959,-20.97252c6.08642,-6.00889 11.61731,-5.65861 16.94085,0.83704c6.9693,8.50382 13.93683,17.00922 20.94806,25.47846c3.87659,4.68275 7.84076,9.29303 11.63776,13.78492c0.9732,-0.48108 1.38397,-0.54606 1.53808,-0.78009c7.50782,-11.40422 14.95923,-22.84579 22.513,-34.21942c1.37574,-2.07144 0.63178,-3.66195 -0.3247,-5.51578c-10.15796,-19.68682 -20.25965,-39.40268 -30.40863,-59.09416c-0.65644,-1.27375 -1.00074,-2.88566 -3.53534,-3.58685c-5.2096,6.34658 -10.4715,12.75691 -15.8141,19.27336c-5.3426,6.51645 -10.7659,13.13903 -16.2983,19.91011z" id="svg_1"/>
  <path fill="#937527" d="m111.64041,384.02057c1.03185,-2.57474 1.93557,-4.83253 2.92285,-7.06394c0.14791,-0.3343 0.68739,-0.54496 1.98812,-1.51721c10.4803,26.39283 20.78108,52.33355 31.10194,78.3248c-5.01005,2.12566 -6.36644,-0.33817 -7.48814,-3.2371c-7.44026,-19.22838 -14.89586,-38.45252 -22.34959,-57.67724c-0.50782,-1.30982 -1.04107,-2.6126 -1.71261,-4.29463c-2.02267,1.39737 -2.10157,3.17797 -2.67151,4.64297c-7.42322,19.0808 -14.7731,38.18198 -22.1044,57.28816c-0.96586,2.51715 -1.73677,5.07885 -7.20131,3.42498c9.13217,-23.17393 18.27291,-46.36959 27.51465,-69.89079z" id="svg_2"/>
  <path fill="#937527" d="m713.89691,428.51587c-9.09332,-0.00071 -17.70306,-0.00071 -26.57269,-0.00071c0,6.90398 0.04993,14.54748 -0.04297,22.18976c-0.01819,1.49338 0.84332,3.77737 -2.271,3.85707c-3.67431,0.09402 -2.41088,-2.39898 -2.41314,-3.98679c-0.03211,-22.41056 -0.00232,-44.82116 0.013,-67.23178c0.00067,-0.97436 -0.09314,-1.95792 0.03357,-2.92099c0.19903,-1.51306 -0.67908,-3.78756 2.53259,-3.64012c2.72284,0.12498 2.11658,2.16719 2.12256,3.57376c0.05523,12.94515 0.0343,25.89057 0.03552,38.83589c0.00012,1.51566 0,3.03132 0,4.93853c10.77106,0 21.19751,0.0203 31.62366,-0.01336c2.83777,-0.00912 2.99536,-1.79978 3.00531,-3.53648c0.03424,-5.98517 0.02295,-11.97055 0.0437,-17.95581c0.00384,-1.11217 -0.0014,-2.23086 0.13574,-3.33456c0.17786,-1.43101 1.08612,-2.34482 2.94867,-2.20643c1.67346,0.12434 2.16547,1.12766 2.17511,2.35591c0.02844,3.61886 0.04193,7.23788 0.04389,10.85681c0.00701,12.80615 0.09741,25.61321 -0.08478,38.41751c-0.02857,2.00843 1.80182,5.68504 -2.41968,5.67877c-4.53412,-0.00678 -2.57373,-3.80638 -2.72174,-5.96896c-0.30377,-4.43949 -0.06262,-8.9041 -0.08124,-13.35833c-0.02704,-6.4726 -0.04047,-6.47254 -8.10608,-6.54969z" id="svg_3"/>
  <path fill="#937527" d="m56.54285,377.00444c2.36958,-4.44031 4.56692,-8.55075 6.76835,-12.65902c0.97168,-1.81333 2.01504,-3.6919 4.52822,-2.94608c2.32961,0.69125 1.98737,2.901 1.99723,4.61453c0.09308,16.15207 0.09908,32.30463 0.11752,48.45707c0.01236,10.82403 0.00617,21.64801 0.00265,32.47204c-0.00044,1.33179 0.04227,2.67053 -0.07466,3.99365c-0.14449,1.63513 -0.11754,3.57514 -2.46867,3.62689c-2.34022,0.05158 -2.49792,-1.75286 -2.5605,-3.48004c-0.05425,-1.49713 -0.05479,-2.9967 -0.05499,-4.49524c-0.00297,-24.30798 -0.0021,-48.61596 -0.71439,-73.24734c-6.90104,12.86267 -13.80209,25.72531 -20.57181,38.34317c-2.08498,0.15057 -2.47024,-1.1452 -2.97606,-2.07935c-5.1516,-9.51376 -10.24702,-19.05786 -15.35886,-28.59311c-0.88655,-1.65374 -1.96264,-3.33664 0.55564,-4.56549c2.22176,-1.08416 2.97211,0.62003 3.76226,2.07846c3.33049,6.14722 6.61795,12.31775 9.93715,18.4711c0.84443,1.56553 1.74759,3.09937 3.2529,5.75959c4.91694,-9.13162 9.3022,-17.27582 13.85802,-25.75083z" id="svg_4"/>
  <path fill="#937527" d="m601.41296,387.54292c-16.88891,15.69642 -12.07568,45.05068 7.64728,57.24061c4.48309,2.77079 9.35504,4.44203 14.77417,5.00315c1.86633,0.19322 4.5163,0.28679 4.13696,2.84997c-0.39416,2.66321 -2.88153,1.87798 -4.77716,1.61186c-19.57049,-2.74792 -35.14581,-19.03254 -36.56079,-37.59439c-1.20654,-15.82756 4.41547,-28.79263 18.82904,-38.25394c17.57013,-11.53335 44.45093,-8.96769 58.74994,5.44131c1.09979,1.10831 2.11072,2.31892 2.94806,3.59514c0.70111,1.06853 0.12994,2.01035 -0.99872,2.65063c-1.01806,0.57753 -1.8952,0.33676 -2.64282,-0.42619c-0.43921,-0.44824 -0.8446,-0.92311 -1.2641,-1.38684c-11.22784,-12.41216 -25.94592,-14.70318 -42.36658,-11.44107c-7.39105,1.46832 -13.21405,5.50475 -18.47528,10.70976z" id="svg_5"/>
  <path fill="#937527" d="m503.83264,380.4826c17.26978,-15.80188 48.99213,-15.36247 64.01874,1.08104c1.58783,1.73751 5.65649,3.81248 2.48456,6.27451c-3.17957,2.4679 -4.17041,-1.85423 -5.66883,-3.3734c-10.48181,-10.62739 -28.5744,-14.36354 -44.20459,-8.88335c-14.1701,4.96824 -24.85055,19.31594 -25.23315,33.1346c-0.33484,12.09409 3.21967,22.69919 12.40454,31.51266c5.36145,5.14473 11.73956,8.49764 19.52319,9.35446c0.49494,0.05447 1.00153,0.10156 1.47303,0.2388c1.71789,0.50004 3.96222,0.75892 3.30938,3.14248c-0.5509,2.01147 -2.52832,1.64344 -4.16693,1.42158c-8.48333,-1.14874 -15.80703,-4.50234 -22.1376,-9.82469c-17.00241,-14.2945 -22.47354,-45.163 -1.80234,-64.07869z" id="svg_6"/>
  <path fill="#937527" d="m166.80533,394.44102c14.73592,-25.324 50.44565,-27.05624 68.88785,-13.158c2.41737,1.82179 4.61519,3.81247 6.41482,6.13153c0.88901,1.14557 1.68495,2.33593 0.00257,3.44578c-1.71157,1.12906 -2.74126,0.06655 -3.6849,-1.03361c-9.57133,-11.15865 -22.72256,-14.0243 -37.70903,-12.76678c-16.25407,1.36383 -32.43003,16.31569 -33.50138,30.68521c-0.98873,13.26126 2.18188,25.08479 13.66978,34.4369c5.15848,4.19945 11.01404,7.01583 18.08627,7.70826c1.29801,0.12707 2.59395,0.51054 3.8144,0.9435c1.10211,0.39089 1.26327,1.3254 0.92273,2.22962c-0.61852,1.64234 -2.15108,1.59268 -3.70345,1.4174c-8.51918,-0.9617 -15.94115,-4.03366 -22.24147,-9.15905c-15.38483,-12.51575 -20.05202,-33.85395 -10.95819,-50.88075z" id="svg_7"/>
  <path fill="#937527" d="m457.41983,392.10676c2.09647,16.76838 -5.85788,38.20447 -30.82394,39.13031c-4.51896,0.16755 -5.74579,1.89954 -5.50595,6.04285c0.25921,4.47839 0.08465,8.98474 0.0162,13.47766c-0.0286,1.87732 -0.21231,3.87329 -2.83188,3.8053c-2.69797,-0.06995 -2.53659,-2.20105 -2.55081,-3.99994c-0.05258,-6.65741 0.09585,-13.31879 -0.08243,-19.97192c-0.09631,-3.59485 1.53208,-4.64704 4.82251,-4.51276c6.00543,0.24518 11.95233,0.03906 17.54767,-2.68512c10.38101,-5.05414 16.56049,-18.70239 14.34024,-31.90686c-2.39346,-14.23434 -8.9949,-22.63116 -19.80218,-24.5737c-4.39548,-0.79004 -8.93039,-0.80646 -13.40259,-1.16623c-1.53025,-0.12314 -3.13214,-0.17822 -3.15842,-2.29651c-0.02219,-1.78885 1.29065,-2.11651 2.69342,-2.25058c24.68494,-2.3602 37.65717,12.26548 38.73816,30.9075z" id="svg_8"/>
  <path fill="#937527" d="m271.47992,423.37963c-2.84818,-0.81403 -7.38004,1.22418 -7.32349,-2.55738c0.06482,-4.33209 4.65369,-2.43658 7.25806,-2.53332c7.31747,-0.27179 14.65311,-0.19629 21.978,-0.06232c3.22509,0.05902 4.4465,-1.1723 4.39261,-4.39813c-0.13074,-7.82477 -0.06083,-15.6535 -0.00284,-23.48016c0.01394,-1.8848 -0.59818,-4.4058 2.4552,-4.52289c2.87521,-0.11032 2.93817,2.14312 2.9385,4.20971c0.00342,20.15027 0.00452,40.3006 -0.03448,60.45081c-0.00351,1.79932 0.10141,3.95996 -2.53159,4.07342c-3.05175,0.1316 -2.81421,-2.2586 -2.82794,-4.21765c-0.05121,-7.32715 -0.1575,-14.65808 0.0278,-21.98077c0.09229,-3.64703 -1.20169,-5.091 -4.90597,-4.99896c-6.98975,0.1737 -13.98737,0.03241 -21.42386,0.01764z" id="svg_9"/>
  <path fill="#937527" d="m263.27521,389.0484c0.00128,20.14178 0.00439,39.84215 -0.00415,59.5425c-0.00058,1.3216 -0.0261,2.64794 -0.15448,3.96345c-0.13678,1.40174 -1.10349,2.06787 -2.69364,2.00632c-1.35083,-0.05222 -2.22287,-0.69335 -2.37671,-1.85095c-0.17398,-1.30872 -0.19674,-2.63846 -0.19726,-3.95903c-0.00955,-23.52346 -0.00589,-47.04692 -0.00434,-70.57038c0.00007,-0.73509 -0.02575,-1.47178 0.01887,-2.20495c0.10681,-1.75532 -0.10639,-3.82139 2.87655,-3.74224c2.67328,0.0709 2.47757,1.99333 2.49903,3.58322c0.05749,4.26307 0.02932,8.52704 0.03613,13.23205z" id="svg_10"/>
  <path fill="#937527" d="m321.49353,378.46329c0.23181,18.32684 -0.94131,36.32705 0.68976,54.29206c0.84643,9.32303 6.48074,14.99981 17.00561,17.61607c1.72769,0.42937 4.19867,0.40469 3.65537,2.55381c-0.59384,2.34928 -3.147,1.57559 -4.96878,1.26801c-11.09055,-1.8723 -18.92053,-9.64498 -20.24515,-19.5401c-1.16455,-8.69902 -0.58856,-17.4089 -0.68539,-26.11356c-0.10794,-9.69972 -0.02191,-19.4012 0.03058,-29.10169c0.00732,-1.35586 -0.25776,-3.04867 1.82443,-3.53283c2.04858,-0.47636 2.52911,0.82839 2.69357,2.55822z" id="svg_11"/>
  <path fill="#937527" d="m741.65039,379.00777c0.01386,-2.07895 -0.01056,-3.71936 0.05493,-5.35692c0.04822,-1.20601 0.13422,-2.55237 1.94409,-2.63057c2.04285,-0.08828 2.37494,1.30827 2.46241,2.71724c0.08306,1.33784 0.06909,2.68128 0.07074,4.02228c0.02075,17.13859 -0.06653,34.27792 0.09057,51.41547c0.10144,11.0545 5.94806,17.87489 17.6164,21.03552c1.62396,0.43984 3.59912,0.51653 3.17163,2.59887c-0.4961,2.41738 -2.79511,1.70465 -4.45105,1.48821c-11.92072,-1.55833 -20.81305,-11.39812 -20.91162,-23.43436c-0.14032,-17.13788 -0.0434,-34.27726 -0.0481,-51.85574z" id="svg_12"/>
  <path fill="#937527" d="m15.65131,385.6295c0.00665,-7.1517 -0.02033,-13.80371 0.04791,-20.4548c0.0143,-1.39289 -0.37648,-3.17664 1.72363,-3.61329c1.7017,-0.35382 2.96169,0.42054 3.6911,1.88868c1.46611,2.95095 5.33907,5.79824 0.04795,9.02371c-1.60449,0.97812 -0.82344,3.42431 -0.82629,5.20795c-0.03673,22.94842 -0.02906,45.89697 -0.03292,68.84545c-0.00017,0.99775 0.11856,2.01416 -0.03071,2.98932c-0.29496,1.92694 0.92696,5.0708 -2.34964,5.04792c-3.32005,-0.02308 -2.19997,-3.20661 -2.20831,-5.07734c-0.09405,-21.11889 -0.06125,-42.23834 -0.06272,-63.8576z" id="svg_13"/>
  <path fill="#937527" d="m471.88684,376.56983c0.36908,-1.48646 1.10187,-2.23909 2.49786,-2.0413c1.40769,0.19948 1.72934,1.21972 1.79291,2.27093c0.06922,1.14489 0.08307,2.29329 0.08316,3.44016c0.00168,22.94759 -0.0014,45.89519 -0.00732,68.84278c-0.00025,1.00365 0.02102,2.01126 -0.07196,3.00987c-0.10761,1.15589 -0.25998,2.40733 -2.06479,2.46993c-1.8053,0.06256 -2.116,-1.11388 -2.24869,-2.31208c-0.07886,-0.71182 -0.07022,-1.43231 -0.06991,-2.14893c0.01031,-24.38164 0.02432,-48.76328 0.08874,-73.53136z" id="svg_14"/>
  <path fill="#937527" d="m792.66443,378.95279c0.57379,-2.32514 -1.37018,-5.77373 1.99512,-5.79466c2.92419,-0.01817 1.59845,3.33565 1.61041,5.14838c0.11627,17.53274 0.15185,35.0667 0.04144,52.59946c-0.07342,11.65823 -7.5639,20.44324 -19.41546,23.16334c-0.95893,0.22003 -1.94361,0.43063 -2.92621,0.47437c-1.32569,0.05902 -2.79676,0.10243 -3.08948,-1.49183c-0.2489,-1.35563 0.37195,-2.24556 1.99554,-2.52697c0.64808,-0.11224 1.26587,-0.35608 1.9007,-0.53086c11.62805,-3.2002 17.76941,-10.28707 17.84772,-21.08678c0.11981,-16.5099 0.03711,-33.02088 0.04022,-49.95445z" id="svg_15"/>
  <path fill="#937527" d="m346.78058,453.37513c-0.51804,-2.24019 1.16702,-2.61123 2.83252,-2.93313c14.13626,-2.73241 18.86191,-11.32872 18.99191,-22.54487c0.17505,-15.10191 0.01331,-30.20629 0.09283,-45.30926c0.00846,-1.60471 -1.01239,-3.64576 1.66212,-4.67026c2.54632,0.68142 1.91351,2.42896 1.9169,3.82018c0.04034,16.47619 0.16857,32.95379 -0.03891,49.42831c-0.15091,11.98258 -7.64389,20.40663 -19.80906,22.9067c-1.87091,0.38447 -3.85287,1.15885 -5.64831,-0.69767z" id="svg_16"/>
  <path fill="#937527" d="m662.70605,435.90291c1.34601,-1.50952 2.56257,-2.32293 4.01685,-0.81695c1.45032,1.50189 0.39093,2.74316 -0.58545,3.91461c-7.37085,8.84344 -16.83148,13.90094 -28.19208,15.45618c-1.69171,0.23156 -3.56622,0.30181 -3.76013,-2.07215c-0.19842,-2.4306 1.8761,-2.48004 3.44183,-2.6803c10.05305,-1.28546 18.20759,-5.99774 25.07898,-13.80139z" id="svg_17"/>
  <path fill="#937527" d="m563.745,439.05867c1.05364,-1.09815 1.84619,-1.9516 2.64819,-2.79615c1.11645,-1.17584 2.12225,-2.95684 4.06744,-1.38128c1.89154,1.53204 0.65778,2.95581 -0.44946,4.24817c-6.24902,7.29345 -13.92352,12.30127 -23.35449,14.453c-1.45697,0.3324 -2.92621,0.64624 -4.40699,0.83014c-1.643,0.20392 -3.59075,0.56042 -4.05169,-1.70526c-0.48425,-2.38037 1.42383,-2.63519 3.11834,-2.86939c8.5019,-1.1748 15.90571,-4.65265 22.42866,-10.77923z" id="svg_18"/>
  <path fill="#937527" d="m234.5954,439.90349c1.6322,-1.67828 2.99527,-3.12341 4.36516,-4.56207c0.88018,-0.92438 1.84407,-1.42688 3.03935,-0.52252c1.34079,1.01446 1.3585,2.2489 0.35991,3.43567c-1.38297,1.64367 -2.81589,3.25915 -4.35553,4.75482c-6.65041,6.4602 -14.73151,9.98114 -23.81415,11.33417c-1.58452,0.23602 -3.59149,0.74438 -4.13203,-1.50159c-0.65905,-2.73822 1.59642,-2.81604 3.37384,-3.06299c7.94549,-1.10449 14.86613,-4.40033 21.16345,-9.87549z" id="svg_19"/>
 </g>

</svg>